<?xml version="1.0" encoding="utf-8"?>
<!-- Generator: Adobe Illustrator 16.0.0, SVG Export Plug-In . SVG Version: 6.00 Build 0)  -->
<!DOCTYPE svg PUBLIC "-//W3C//DTD SVG 1.1//EN" "http://www.w3.org/Graphics/SVG/1.1/DTD/svg11.dtd" [
	<!ENTITY ns_extend "http://ns.adobe.com/Extensibility/1.0/">
	<!ENTITY ns_ai "http://ns.adobe.com/AdobeIllustrator/10.0/">
	<!ENTITY ns_graphs "http://ns.adobe.com/Graphs/1.0/">
	<!ENTITY ns_vars "http://ns.adobe.com/Variables/1.0/">
	<!ENTITY ns_imrep "http://ns.adobe.com/ImageReplacement/1.0/">
	<!ENTITY ns_sfw "http://ns.adobe.com/SaveForWeb/1.0/">
	<!ENTITY ns_custom "http://ns.adobe.com/GenericCustomNamespace/1.0/">
	<!ENTITY ns_adobe_xpath "http://ns.adobe.com/XPath/1.0/">
]>
<svg version="1.1" id="Шар_1" xmlns:x="&ns_extend;" xmlns:i="&ns_ai;" xmlns:graph="&ns_graphs;"
	 xmlns="http://www.w3.org/2000/svg" xmlns:xlink="http://www.w3.org/1999/xlink" x="0px" y="0px" width="252.518px"
	 height="252.518px" viewBox="0 0 252.518 252.518" enable-background="new 0 0 252.518 252.518" xml:space="preserve">
<metadata>
	<sfw  xmlns="&ns_sfw;">
		<slices></slices>
		<sliceSourceBounds  width="252.447" height="252.447" bottomLeftOrigin="true" y="-470.209" x="174.402"></sliceSourceBounds>
	</sfw>
</metadata>
<circle fill="#F6F6F6" cx="126.259" cy="126.259" r="126.224"/>
<path d="M63.925,166.713c0-3.043,0-6.087,0-9.13c0.134-0.736,0.264-1.473,0.404-2.207c0.788-4.124,2.368-7.846,5.498-10.77
	c2.639-2.463,5.807-3.961,9.224-4.986c0.945-0.283,1.902-0.516,2.921-0.791c-0.108-0.281-0.208-0.518-0.293-0.76
	c-0.902-2.601-1.871-5.182-2.683-7.812c-0.87-2.82-0.438-5.573,0.968-8.126c2.379-4.32,5.782-7.647,10.137-9.962
	c2.068-1.099,4.287-1.402,6.61-1.046c2.435,0.375,4.647,1.334,6.801,2.472c0.364,0.192,0.726,0.392,1.253,0.677
	c-0.156-0.469-0.253-0.774-0.356-1.078c-3.585-10.611-7.23-21.204-10.738-31.841c-2.198-6.659-4.175-13.39-5.571-20.274
	c-0.679-3.35-1.011-6.707-0.438-10.117c1.028-6.121,4.981-10.954,11.354-11.874c2.792-0.402,5.262,0.083,7.358,2.036
	c0.694,0.646,1.389,1.295,2.021,1.997c1.927,2.139,3.502,4.536,4.953,7.012c3.87,6.603,6.898,13.603,9.737,20.69
	c3.969,9.913,7.332,20.044,10.785,30.142c0.088,0.256,0.188,0.508,0.35,0.943c0.159-0.421,0.251-0.643,0.33-0.867
	c1.223-3.474,2.447-6.946,3.664-10.421c3.33-9.493,6.868-18.903,11.249-27.973c2.37-4.911,4.949-9.706,8.315-14.029
	c1.372-1.764,2.877-3.403,4.713-4.702c1.258-0.887,2.602-1.615,4.168-1.717c6.585-0.431,11.263,3.352,13.059,8.911
	c1.002,3.104,1.08,6.282,0.603,9.489c-0.749,5.027-2.054,9.93-3.441,14.809c-3.477,12.224-7.655,24.218-11.924,36.182
	c-0.115,0.323-0.224,0.649-0.348,1.015c0.249,0.065,0.416,0.106,0.582,0.152c1.402,0.384,2.825,0.7,4.197,1.167
	c6.366,2.167,10.675,6.387,12.562,12.901c0.563,1.943,1.051,3.929,1.335,5.929c1.165,8.202,0.99,16.409-0.271,24.583
	c-2.146,13.916-7.885,26.086-17.785,36.2c-9.718,9.927-21.496,15.713-35.25,17.519c-1.418,0.188-2.84,0.341-4.258,0.509
	c-3.529,0-7.057,0-10.587,0c-0.191-0.04-0.38-0.1-0.574-0.119c-7.906-0.742-15.371-2.973-22.39-6.672
	c-7.685-4.05-13.89-9.831-19.16-16.65c-4.292-5.558-7.263-11.752-8.594-18.685C64.24,168.532,64.088,167.622,63.925,166.713z
	 M79.628,161.11c0.185,0.212,0.349,0.386,0.493,0.573c1.511,1.953,3.037,3.896,4.526,5.866c1.947,2.576,4.009,5.04,6.536,7.076
	c1.487,1.198,3.087,2.207,4.935,2.757c2.47,0.736,4.796,0.556,6.847-1.177c1.572-1.327,1.977-2.539,1.24-4.456
	c-0.568-1.475-1.238-2.932-2.042-4.29c-3.777-6.365-8.334-12.139-13.539-17.388c-1.122-1.131-2.481-2.04-3.793-2.959
	c-1.021-0.716-2.213-0.783-3.432-0.557c-1.585,0.294-2.956,1.015-4.162,2.051c-2.153,1.848-3.729,4.109-4.688,6.78
	c-1.43,3.992-1.23,8.022-0.185,12.05c1.521,5.852,4.404,11.023,7.922,15.889c6.475,8.96,14.956,15.109,25.554,18.272
	c7.196,2.146,14.545,2.625,21.996,1.817c6.612-0.717,12.89-2.561,18.651-5.891c12.285-7.101,20.639-17.516,25.471-30.783
	c3.028-8.317,3.989-16.967,3.779-25.772c-0.076-3.245-0.35-6.466-0.983-9.661c-0.897-4.518-3.294-7.865-7.549-9.704
	c-2.706-1.168-5.445-2.312-8.26-3.159c-11.456-3.442-23.201-5.001-35.149-5.095c-1.409-0.011-2.828,0.018-4.224,0.186
	c-3.375,0.408-4.939,2.172-5.062,5.576c-0.151,4.202,1.475,7.544,4.894,9.999c2.421,1.737,5.168,2.744,8.024,3.475
	c6.103,1.562,12.342,2.045,18.605,2.238c3.811,0.118,7.628,0.111,11.442,0.125c1.509,0.006,2.572,0.674,3.245,1.983
	c0.249,0.487,0.462,1.009,0.587,1.541c0.4,1.704,0.552,1.36-0.862,2.335c-0.795,0.549-1.648,1.031-2.527,1.433
	c-1.721,0.789-3.45,1.578-5.225,2.232c-10.201,3.764-17.48,10.72-22.255,20.378c-2.045,4.137-3.07,8.523-2.272,13.148
	c0.381,2.208,1.025,4.373,1.61,6.541c0.488,1.809,1.128,3.579,1.568,5.396c0.206,0.853,0.115,1.783,0.132,2.679
	c0.009,0.496-0.271,0.598-0.739,0.525c-2.286-0.343-4.147-1.423-5.649-3.153c-1.592-1.828-2.614-3.971-3.356-6.253
	c-1.277-3.925-1.608-7.981-1.63-12.078c0-0.277,0-0.553,0-1.005c-1.222,1.025-2.443,1.628-3.877,1.512
	c-1.338-0.108-2.668-0.33-4.038-0.506c0.051,0.233,0.119,0.466,0.153,0.703c0.167,1.243,0.453,2.485,0.472,3.731
	c0.089,5.763-5.168,9.974-9.981,10.484c-3.672,0.387-7.058-0.515-10.218-2.298c-4.627-2.611-8.408-6.171-11.408-10.551
	c-1.143-1.666-1.994-3.482-2.475-5.455c-0.406-1.667-0.551-3.35-0.208-5.048C78.679,162.435,78.983,161.718,79.628,161.11z
	 M126.828,106.565c-0.104-0.351-0.16-0.561-0.232-0.767c-2.5-7.23-4.973-14.471-7.513-21.688c-2.854-8.11-5.713-16.218-8.69-24.283
	c-0.998-2.701-2.309-5.291-3.574-7.883c-0.769-1.572-1.83-2.971-3.251-4.038c-1.811-1.36-3.766-1.589-5.762-0.491
	c-1.613,0.887-2.408,2.403-2.787,4.154c-0.345,1.597-0.243,3.203-0.039,4.805c0.553,4.323,1.66,8.523,2.881,12.694
	c3.836,13.109,8.577,25.906,13.373,38.685c0.042,0.115,0.119,0.216,0.229,0.409c1.264-2.056,3.271-2.287,5.311-2.274
	c1.937,0.012,3.873,0.178,5.807,0.308C123.961,106.291,125.339,106.435,126.828,106.565z M141.105,107.94
	c0.189,0.066,0.307,0.125,0.43,0.147c4.645,0.809,9.289,1.607,13.931,2.435c0.47,0.083,0.659-0.022,0.813-0.465
	c0.628-1.789,1.297-3.563,1.941-5.346c4.428-12.257,8.809-24.53,12.444-37.05c0.825-2.832,1.509-5.713,2.097-8.604
	c0.415-2.047,0.166-4.103-0.855-5.977c-1.438-2.639-4.562-3.452-7.1-1.851c-0.611,0.384-1.175,0.865-1.686,1.376
	c-1.481,1.478-2.575,3.24-3.566,5.066c-1.923,3.534-3.479,7.235-4.812,11.023c-3.382,9.607-6.702,19.237-10.043,28.859
	C143.505,100.99,142.32,104.429,141.105,107.94z M86.994,128.479c0.193,0.901,0.281,1.843,0.6,2.697
	c0.672,1.791,1.375,3.583,2.228,5.293c2.847,5.717,6.67,10.789,10.643,15.751c2.553,3.191,5.294,6.22,8.573,8.687
	c1.292,0.973,2.717,1.801,4.168,2.514c0.729,0.358,1.678,0.498,2.494,0.415c2.828-0.285,5.234-3.495,4.817-6.358
	c-0.156-1.063-0.432-2.121-0.762-3.144c-2.942-9.092-7.026-17.642-12.273-25.63c-1.481-2.253-3.151-4.36-5.166-6.17
	c-1.288-1.158-2.686-2.144-4.332-2.739c-1.915-0.693-3.722-0.523-5.413,0.646c-1.822,1.256-3.333,2.812-4.483,4.703
	C87.472,126.158,87.083,127.251,86.994,128.479z M127.681,154.191c3.669-4.55,7.709-8.404,12.389-11.605
	c-6.179-0.394-12.214-1.315-18.063-3.366C124.29,144.041,126.292,148.897,127.681,154.191z"/>
</svg>
