<?xml version="1.0" encoding="utf-8"?>
<!-- Generator: Adobe Illustrator 16.0.0, SVG Export Plug-In . SVG Version: 6.00 Build 0)  -->
<!DOCTYPE svg PUBLIC "-//W3C//DTD SVG 1.1//EN" "http://www.w3.org/Graphics/SVG/1.1/DTD/svg11.dtd" [
	<!ENTITY ns_extend "http://ns.adobe.com/Extensibility/1.0/">
	<!ENTITY ns_ai "http://ns.adobe.com/AdobeIllustrator/10.0/">
	<!ENTITY ns_graphs "http://ns.adobe.com/Graphs/1.0/">
	<!ENTITY ns_vars "http://ns.adobe.com/Variables/1.0/">
	<!ENTITY ns_imrep "http://ns.adobe.com/ImageReplacement/1.0/">
	<!ENTITY ns_sfw "http://ns.adobe.com/SaveForWeb/1.0/">
	<!ENTITY ns_custom "http://ns.adobe.com/GenericCustomNamespace/1.0/">
	<!ENTITY ns_adobe_xpath "http://ns.adobe.com/XPath/1.0/">
]>
<svg version="1.1" id="Шар_1" xmlns:x="&ns_extend;" xmlns:i="&ns_ai;" xmlns:graph="&ns_graphs;"
	 xmlns="http://www.w3.org/2000/svg" xmlns:xlink="http://www.w3.org/1999/xlink" x="0px" y="0px" width="252.518px"
	 height="252.518px" viewBox="0 0 252.518 252.518" enable-background="new 0 0 252.518 252.518" xml:space="preserve">
<metadata>
	<sfw  xmlns="&ns_sfw;">
		<slices></slices>
		<sliceSourceBounds  width="252.669" height="252.098" bottomLeftOrigin="true" y="-469.824" x="174.313"></sliceSourceBounds>
	</sfw>
</metadata>
<circle cx="126.259" cy="126.259" r="125.839"/>
<g>
	<path fill="#F2F2F2" d="M235.67,62.917c-11.298-19.352-26.628-34.673-45.981-45.97C170.327,5.649,149.201,0,126.28,0
		c-22.92,0-44.057,5.649-63.419,16.947C43.51,28.244,28.19,43.565,16.892,62.917C5.595,82.277-0.054,103.413-0.054,126.336
		c0,27.525,8.035,52.279,24.093,74.264c16.07,21.984,36.822,37.205,62.265,45.643c2.958,0.553,5.157,0.169,6.577-1.143
		c1.429-1.321,2.139-2.967,2.139-4.939c0-0.325-0.03-3.281-0.079-8.882c-0.06-5.591-0.089-10.469-0.089-14.641l-3.776,0.663
		c-2.416,0.441-5.461,0.631-9.128,0.569c-3.677-0.047-7.492-0.433-11.436-1.152c-3.954-0.711-7.621-2.347-11.021-4.929
		c-3.401-2.574-5.807-5.945-7.236-10.115l-1.646-3.786c-1.095-2.524-2.819-5.313-5.176-8.39c-2.366-3.066-4.752-5.156-7.157-6.25
		l-1.153-0.818c-0.77-0.553-1.48-1.213-2.141-1.982c-0.659-0.759-1.153-1.528-1.478-2.297c-0.326-0.769-0.059-1.4,0.819-1.893
		c0.876-0.503,2.473-0.74,4.771-0.74l3.292,0.493c2.189,0.434,4.91,1.755,8.144,3.943c3.233,2.199,5.896,5.048,7.976,8.558
		c2.524,4.496,5.56,7.917,9.129,10.282c3.569,2.356,7.157,3.529,10.775,3.529c3.617,0,6.743-0.275,9.375-0.818
		c2.633-0.551,5.097-1.371,7.404-2.465c0.986-7.354,3.677-13.002,8.054-16.946c-6.25-0.661-11.869-1.646-16.857-2.967
		c-4.988-1.311-10.145-3.451-15.459-6.418c-5.323-2.958-9.739-6.635-13.249-11.012c-3.5-4.387-6.389-10.154-8.626-17.272
		c-2.248-7.137-3.372-15.359-3.372-24.675c0-13.269,4.328-24.567,12.993-33.896c-4.062-9.974-3.677-21.153,1.154-33.548
		c3.174-0.994,7.896-0.244,14.146,2.218c6.25,2.466,10.825,4.586,13.734,6.33c2.908,1.754,5.234,3.245,6.989,4.448
		c10.204-2.85,20.732-4.279,31.585-4.279c10.855,0,21.384,1.429,31.586,4.279l6.251-3.956c4.269-2.632,9.315-5.038,15.133-7.235
		c5.807-2.189,10.252-2.789,13.328-1.806c4.93,12.395,5.371,23.574,1.31,33.561c8.667,9.316,12.996,20.614,12.996,33.883
		c0,9.316-1.125,17.567-3.372,24.754c-2.249,7.187-5.146,12.943-8.715,17.271c-3.569,4.339-8.007,7.976-13.329,10.944
		c-5.313,2.957-10.469,5.097-15.458,6.408c-4.989,1.321-10.608,2.306-16.857,2.967c5.698,4.939,8.547,12.718,8.547,23.354v34.711
		c0,1.973,0.689,3.618,2.061,4.931c1.37,1.311,3.529,1.704,6.497,1.151c25.443-8.448,46.195-23.658,62.256-45.653
		c16.068-21.985,24.103-46.739,24.103-74.263C252.605,103.413,246.956,82.277,235.67,62.917L235.67,62.917z M235.67,62.917"/>
</g>
</svg>
