<?xml version="1.0" encoding="utf-8"?>
<!-- Generator: Adobe Illustrator 16.0.0, SVG Export Plug-In . SVG Version: 6.00 Build 0)  -->
<!DOCTYPE svg PUBLIC "-//W3C//DTD SVG 1.1//EN" "http://www.w3.org/Graphics/SVG/1.1/DTD/svg11.dtd" [
	<!ENTITY ns_extend "http://ns.adobe.com/Extensibility/1.0/">
	<!ENTITY ns_ai "http://ns.adobe.com/AdobeIllustrator/10.0/">
	<!ENTITY ns_graphs "http://ns.adobe.com/Graphs/1.0/">
	<!ENTITY ns_vars "http://ns.adobe.com/Variables/1.0/">
	<!ENTITY ns_imrep "http://ns.adobe.com/ImageReplacement/1.0/">
	<!ENTITY ns_sfw "http://ns.adobe.com/SaveForWeb/1.0/">
	<!ENTITY ns_custom "http://ns.adobe.com/GenericCustomNamespace/1.0/">
	<!ENTITY ns_adobe_xpath "http://ns.adobe.com/XPath/1.0/">
]>
<svg version="1.1" id="Шар_1" xmlns:x="&ns_extend;" xmlns:i="&ns_ai;" xmlns:graph="&ns_graphs;"
	 xmlns="http://www.w3.org/2000/svg" xmlns:xlink="http://www.w3.org/1999/xlink" x="0px" y="0px" width="252.518px"
	 height="252.518px" viewBox="0 0 252.518 252.518" enable-background="new 0 0 252.518 252.518" xml:space="preserve">
<metadata>
	<sfw  xmlns="&ns_sfw;">
		<slices></slices>
		<sliceSourceBounds  width="252.518" height="252.518" bottomLeftOrigin="true" y="-470.244" x="174.367"></sliceSourceBounds>
	</sfw>
</metadata>
<circle fill="#F6F6F6" cx="126.259" cy="126.259" r="126.259"/>
<path d="M187.335,211.641c-0.175,0.689-0.862,1.035-2.063,1.035h-22.976c-1.379,0-2.577-0.6-3.612-1.81l-37.939-48.263
	l-10.581,10.067v37.427c0,1.725-0.862,2.584-2.581,2.584H89.772c-1.721,0-2.583-0.859-2.583-2.584V39.491
	c0-1.716,0.862-2.58,2.583-2.58h17.811c1.718,0,2.581,0.863,2.581,2.58v105.048l45.425-45.941c1.204-1.202,2.409-1.806,3.61-1.806
	h23.749c1.032,0,1.719,0.433,2.066,1.286c0.343,1.035,0.258,1.809-0.259,2.327l-48.011,46.453l50.07,62.205
	C187.502,209.753,187.677,210.611,187.335,211.641"/>
</svg>
