<?xml version="1.0" encoding="utf-8"?>
<!-- Generator: Adobe Illustrator 16.0.0, SVG Export Plug-In . SVG Version: 6.00 Build 0)  -->
<!DOCTYPE svg PUBLIC "-//W3C//DTD SVG 1.1//EN" "http://www.w3.org/Graphics/SVG/1.1/DTD/svg11.dtd" [
	<!ENTITY ns_extend "http://ns.adobe.com/Extensibility/1.0/">
	<!ENTITY ns_ai "http://ns.adobe.com/AdobeIllustrator/10.0/">
	<!ENTITY ns_graphs "http://ns.adobe.com/Graphs/1.0/">
	<!ENTITY ns_vars "http://ns.adobe.com/Variables/1.0/">
	<!ENTITY ns_imrep "http://ns.adobe.com/ImageReplacement/1.0/">
	<!ENTITY ns_sfw "http://ns.adobe.com/SaveForWeb/1.0/">
	<!ENTITY ns_custom "http://ns.adobe.com/GenericCustomNamespace/1.0/">
	<!ENTITY ns_adobe_xpath "http://ns.adobe.com/XPath/1.0/">
]>
<svg version="1.1" id="Шар_1" xmlns:x="&ns_extend;" xmlns:i="&ns_ai;" xmlns:graph="&ns_graphs;"
	 xmlns="http://www.w3.org/2000/svg" xmlns:xlink="http://www.w3.org/1999/xlink" x="0px" y="0px" width="252.518px"
	 height="252.518px" viewBox="0 0 252.518 252.518" enable-background="new 0 0 252.518 252.518" xml:space="preserve">
<metadata>
	<sfw  xmlns="&ns_sfw;">
		<slices></slices>
		<sliceSourceBounds  width="252.447" height="252.447" bottomLeftOrigin="true" y="-470.209" x="174.402"></sliceSourceBounds>
	</sfw>
</metadata>
<circle fill="#F6F6F6" cx="126.259" cy="126.259" r="126.224"/>
<path d="M42.628,126.677l36.932,10.905l13.784,43.735c1.44,4.57,7.229,5.954,10.581,2.533l19.095-19.497l37.468,27.5
	c4.585,3.365,11.115,0.865,12.28-4.703l24.813-118.636c1.215-5.811-4.502-10.652-10.034-8.497L42.205,116.656
	C37.498,118.49,37.782,125.247,42.628,126.677z M87.507,132.976l79.725-49.444c1.834-1.138,3.711,1.386,2.094,2.815l-67.512,59.699
	c-0.673,0.595-1.101,1.418-1.202,2.311l-2.599,23.105c-0.085,0.754-1.139,0.854-1.365,0.129l-10.694-34.458
	C85.465,135.556,86.103,133.846,87.507,132.976z"/>
</svg>
